<svg width="32" height="31" viewBox="0 0 32 31" fill="none" xmlns="http://www.w3.org/2000/svg">
<path d="M24.9985 28.969H2.99854V6.96899H15.2185C15.7708 6.96899 16.2185 6.52128 16.2185 5.96899C16.2185 5.41671 15.7708 4.96899 15.2185 4.96899H2.99854C2.4681 4.96899 1.95939 5.17971 1.58432 5.55478C1.20925 5.92985 0.998535 6.43856 0.998535 6.96899V28.969C0.998535 29.4994 1.20925 30.0081 1.58432 30.3832C1.95939 30.7583 2.4681 30.969 2.99854 30.969H24.9985C25.529 30.969 26.0377 30.7583 26.4127 30.3832C26.7878 30.0081 26.9985 29.4994 26.9985 28.969V16.969C26.9985 16.4167 26.5508 15.969 25.9985 15.969C25.4463 15.969 24.9985 16.4167 24.9985 16.969V28.969Z" fill="#CDCDCD"/>
<path d="M30.5285 4.80894L27.1585 1.43894C27.0089 1.28897 26.8313 1.16998 26.6356 1.0888C26.44 1.00761 26.2303 0.96582 26.0185 0.96582C25.8067 0.96582 25.597 1.00761 25.4014 1.0888C25.2057 1.16998 25.0281 1.28897 24.8785 1.43894L11.7718 14.6221C11.3775 15.0188 11.1018 15.5177 10.9761 16.0627L10.0585 20.0389C10.0112 20.2721 10.0162 20.5128 10.073 20.7438C10.1299 20.9749 10.2373 21.1904 10.3874 21.3749C10.5375 21.5595 10.7267 21.7085 10.9413 21.8112C11.1559 21.9139 11.3906 21.9678 11.6285 21.9689C11.7515 21.9825 11.8755 21.9825 11.9985 21.9689L15.9855 21.0893C16.5488 20.965 17.0644 20.6809 17.4705 20.2711L30.5285 7.08894C30.6785 6.93938 30.7974 6.7617 30.8786 6.56608C30.9598 6.37046 31.0016 6.16074 31.0016 5.94894C31.0016 5.73714 30.9598 5.52742 30.8786 5.3318C30.7974 5.13618 30.6785 4.9585 30.5285 4.80894ZM15.8085 19.0489L12.1485 19.8589L12.9985 16.2289L23.3185 5.83894L26.1385 8.65894L15.8085 19.0489ZM27.2685 7.52894L24.4485 4.70894L25.9985 3.12894L28.8385 5.96894L27.2685 7.52894Z" fill="#CDCDCD"/>
</svg>
